<svg id="Capa_1" data-name="Capa 1" xmlns="http://www.w3.org/2000/svg" viewBox="0 0 254.56 59.7" width="254.56" height="59.7">
  <defs>
    <style>.cls-1{fill:#f4d10f;}.cls-2{fill:#c10d19;}.cls-3{fill:#222220;}.cls-4{fill:#c1c1c1;}.cls-5{fill:#df2240;}.cls-6{fill:none;stroke:#de2240;stroke-miterlimit:10;stroke-width:0.5px;isolation:isolate;opacity:0.5;}</style>
  </defs>
  <rect class="cls-1" x="19.9" y="8.9" width="5.2" height="6.1" />
  <rect class="cls-1" x="19.9" y="44.6" width="5.2" height="6.1" />
  <rect class="cls-1" x="34.9" y="27.6" width="6.1" height="5.2" />
  <rect class="cls-1" x="3.4" y="27.6" width="6.1" height="5.2" />
  <polygon class="cls-2" points="9.4 5.7 35.5 5.7 26 10.2 26 14.2 23.7 14.2 23.7 10.2 21.2 10.2 21.2 14.2 18.9 14.2 18.9 10.2 9.4 5.7" />
  <path class="cls-3" d="M26.3,14.6h-3v-4H21.5v4h-3V10.5L9.2,6l.1-.7H35.4l.3.7-9.3,4.4-.1,4.2ZM24,13.9h1.6V10l8.3-4h-23l8.3,4v3.9h1.6v-4H24Z" />
  <polygon class="cls-2" points="9.4 53.8 35.5 53.8 26 49.3 26 45.3 23.7 45.3 23.7 49.3 21.2 49.3 21.2 45.3 18.9 45.3 18.9 49.3 9.4 53.8" />
  <path class="cls-3" d="M35.5,54.2H9.4l-.1-.7,9.3-4.4V45h3v4h1.8V45h3v4.1l9.3,4.4Zm-24.6-.7h23l-8.3-3.9V45.7H24v4H20.8v-4H19.2v3.9Z" />
  <polygon class="cls-2" points="0.4 17.2 4.9 26.8 8.9 26.8 8.9 29 4.9 29 4.9 31.5 8.9 31.5 8.9 33.9 4.9 33.9 0.4 42.3 0.4 17.2" />
  <path class="cls-3" d="M.7,42.5,0,42.3V17.2l.7-.1,4.4,9.3H9.2v3h-4v1.8h4v3.1H5.1Zm0-23.7V40.9l3.9-7.5H8.5V31.8h-4V28.6h4V27.1H4.6Z" />
  <polygon class="cls-2" points="44.5 17.2 40 26.8 36 26.8 36 29 40 29 40 31.5 36 31.5 36 33.9 40 33.9 44.5 42.3 44.5 17.2" />
  <path class="cls-3" d="M44.2,42.5l-4.4-8.3H35.7v-3h4V29.4h-4V26.5h4.1l4.4-9.3.7.1V42.4Zm-7.8-9h3.9L44.2,41V18.9l-3.9,8.3H36.4v1.5h4v3.2h-4Z" />
  <path class="cls-1" d="M8.9,14.2H36V40.3c0,2-3.3,5-5.5,5H23.7a1.29,1.29,0,0,0-1.2,1,1.72,1.72,0,0,0-1.2-1H14.5c-2.2,0-5.5-3-5.5-5Z" />
  <path class="cls-3" d="M22.8,46.4h-.7a1.6,1.6,0,0,0-.9-.7H14.4c-2.4,0-5.9-3.2-5.9-5.4V13.9H36.3V40.4c0,2.3-3.4,5.4-5.9,5.4H23.6A.94.94,0,0,0,22.8,46.4ZM9.2,14.6V40.4c0,1.8,3.1,4.7,5.2,4.7h6.8a1.85,1.85,0,0,1,1.2.7,2.13,2.13,0,0,1,1.2-.7h6.8c2,0,5.2-2.8,5.2-4.7V14.6Z" />
  <path class="cls-3" d="M12.1,17.2H32.7V40.3a2.21,2.21,0,0,1-2.3,2H23.6a1.55,1.55,0,0,0-1.2,1,1.72,1.72,0,0,0-1.2-1H14.4a2.55,2.55,0,0,1-2.3-2Z" />
  <path class="cls-1" d="M22.1,27.3c-.4-.6,2.8,1.4,2.8,3.3a2,2,0,0,1-2,1.8h0a2,2,0,0,1-2-1.8C21,29.2,23.1,29.1,22.1,27.3Z" />
  <path class="cls-3" d="M23,32.2a1.75,1.75,0,0,1-1.8-1.6,2.37,2.37,0,0,1,.9-1.5l.2.3a1.52,1.52,0,0,0-.7,1.2A1.4,1.4,0,0,0,23,31.8a1.37,1.37,0,0,0,1.5-1.3c0-1.2-1.6-2.5-2.1-2.7l.1-.3c.5.1,2.3,1.6,2.3,3A1.65,1.65,0,0,1,23,32.2Z" />
  <path class="cls-3" d="M23,31.9a2.09,2.09,0,0,1-1.2-1,1.73,1.73,0,0,1,.1-1c.1-.1.1-.3.2-.4a.31.31,0,0,0,.1-.2h.4a.52.52,0,0,1-.2.4.52.52,0,0,0-.2.4.88.88,0,0,0-.1.7c.1.3.4.5,1.1.8Z" />
  <path class="cls-3" d="M23.3,31.9l-.2-.3a1.2,1.2,0,0,0,.7-1c.1-.5-.4-1-.9-1.6-.2-.2-.4-.5-.6-.7l.3-.2c.2.2.4.5.6.7a2.62,2.62,0,0,1,.9,1.9A1.41,1.41,0,0,1,23.3,31.9Z" />
  <path class="cls-3" d="M23.3,31.6l-.3-.2c.6-.8.2-1.5-.2-2.2,0-.1-.1-.2-.2-.3l.3-.2.1.3C23.5,29.8,24,30.6,23.3,31.6Z" />
  <path class="cls-3" d="M22.8,31.7c-.8-.5-.6-1.8-.4-2.5l.3.1c-.2.6-.3,1.7.2,2.1Z" />
  <path class="cls-1" d="M30.4,24.8h-2l.1-1a1.06,1.06,0,0,0,.7-.6,1.39,1.39,0,0,0,.2-1.1,2.82,2.82,0,0,0-.4-1.5,1.85,1.85,0,0,0-1.2-.5,1.61,1.61,0,0,0-1.1.5,2,2,0,0,0-.5,1.5,4.25,4.25,0,0,0,.2,1.1,1.34,1.34,0,0,0,.7.6l.1,1h-2v-1h.1c0,.1.1.3.2.3.1.2.2.2.4.2h1V24a2.59,2.59,0,0,1-1.1-.7,2.11,2.11,0,0,1-.5-1.3,1.8,1.8,0,0,1,.7-1.5,2.79,2.79,0,0,1,1.8-.6,5.07,5.07,0,0,1,1.3.2,2.36,2.36,0,0,1,.9.8,2,2,0,0,1,.3,1.1,2.38,2.38,0,0,1-.3,1.2,2.4,2.4,0,0,1-1.2.7v.2h.9c.2,0,.4,0,.4-.1s.1-.2.1-.4h.2v1.2Z" />
  <path class="cls-3" d="M48.9,17h3.5v8.5a2.9,2.9,0,0,0,.5,1.8,1.83,1.83,0,0,0,1.5.6,2.34,2.34,0,0,0,1.7-.7,3.08,3.08,0,0,0,.6-1.9V18h-1V17h3.5V28.1h1v1H56.8l-.1-1.2A5.27,5.27,0,0,1,55.2,29a3.92,3.92,0,0,1-1.8.4,3.19,3.19,0,0,1-2.6-1,4.1,4.1,0,0,1-.9-2.8V18h-1V17Z" />
  <path class="cls-3" d="M61.8,25.5V19.1l-.8.2v-.8l2.9-.9H64V19a9.91,9.91,0,0,1,1.7-1.1,3.26,3.26,0,0,1,1.4-.4,2.41,2.41,0,0,1,1.8.7,2.64,2.64,0,0,1,.7,1.9v5.3h.8v.9H66.6v-.9h.8V20.3a1.69,1.69,0,0,0-.3-1c-.3-.2-.6-.4-.9-.3a4.25,4.25,0,0,0-1.1.2,4.13,4.13,0,0,0-1.1.7v5.4h.8v.9H61v-.9l.8.2Z" />
  <path class="cls-3" d="M74,17.5h0a1.63,1.63,0,0,1,0,.7v7.3h.8v.9H71v-.9h.8V19.1l-.8.2v-.8Zm-2.4-1.7a1.22,1.22,0,0,1,.4-.9,1.27,1.27,0,0,1,.9-.4,1.22,1.22,0,0,1,.9.4,1.27,1.27,0,0,1,.4.9,1.22,1.22,0,0,1-.4.9,1.27,1.27,0,0,1-.9.4,1.22,1.22,0,0,1-.9-.4,1.8,1.8,0,0,1-.4-.9Z" />
  <path class="cls-3" d="M77.2,17.5c.1.3.1.6.2.9l.3.9A8,8,0,0,1,79,18a2.1,2.1,0,0,1,1.1-.4,5,5,0,0,1,1.2.2c.4.1.7.1,1.1.2h.4c.2-.1.3-.1.5-.2l.4.4c-.2.4-.4.7-.6,1.1,0,.1-.1.2-.1.3L80.8,25c-.1.2-.2.5-.3.7s-.1.5-.2.7H78.5a4.87,4.87,0,0,0-.4-1.1v-.1l-2.6-5.8-.7.3-.3-.7Zm4.9,1.8c-.1.1-.2.1-.3.2h-.4a2.92,2.92,0,0,1-.9-.2,3.55,3.55,0,0,0-1-.2,1.45,1.45,0,0,0-.7.2,4.35,4.35,0,0,0-.7.6l1.8,4.4Z" />
  <path class="cls-3" d="M90.3,21.3l-4.4,1.5a3.36,3.36,0,0,0,1,1.6,2.72,2.72,0,0,0,1.7.6,5.85,5.85,0,0,0,1.3-.2,4.18,4.18,0,0,0,1.2-.8l.5.6a6.9,6.9,0,0,1-1.8,1.6,4.56,4.56,0,0,1-2.2.6,3.6,3.6,0,0,1-2.9-1.3,4.2,4.2,0,0,1-1.1-3.2A5,5,0,0,1,84.8,19a4,4,0,0,1,3-1.3,3.17,3.17,0,0,1,1.6.4,4.25,4.25,0,0,1,2,2.1c.1.3.2.5.3.8,0,.1-.2.2-.5.3A1.35,1.35,0,0,0,90.3,21.3Zm-1-.7a3.77,3.77,0,0,0-.9-1.5,1.85,1.85,0,0,0-1.2-.5,1.52,1.52,0,0,0-1.2.7,3,3,0,0,0-.5,1.6v.5a.9.9,0,0,0,.1.5Z" />
  <path class="cls-3" d="M97.8,17.5l.7.3-1.1,2.3a2,2,0,0,0-.8-.4,1.27,1.27,0,0,0-.6-.1.91.91,0,0,0-.8.4,1.93,1.93,0,0,0-.3,1v4.5h1v.9h-4v-.9h.8V20.4a.9.9,0,0,0-.1-.5c-.1-.1-.2-.2-.3-.2l-.2.3-.6-.5L93,17.6a6.73,6.73,0,0,1,1.1.7,3.49,3.49,0,0,1,.6.9,3.6,3.6,0,0,1,.8-1.2,2,2,0,0,1,.8-.4,1.27,1.27,0,0,1,.6.1c.2.1.5.2.7.3Z" />
  <path class="cls-3" d="M104.1,18.4l-.9,1.4a10.59,10.59,0,0,0-1.2-1,2,2,0,0,0-1.1-.3,1.07,1.07,0,0,0-.6.2.6.6,0,0,0-.3.6c0,.5.7,1,2.1,1.6h.1A4.18,4.18,0,0,1,104,22a1.91,1.91,0,0,1,.4,1.5,2.81,2.81,0,0,1-1,2.1,3.84,3.84,0,0,1-2.5.9,5.66,5.66,0,0,1-1.8-.3,4,4,0,0,1-1.5-1l1.2-1.6a7.31,7.31,0,0,0,1.6,1.4,2,2,0,0,0,1.3.4,1.14,1.14,0,0,0,.8-.3,1.08,1.08,0,0,0,.3-.7c0-.5-.5-.9-1.6-1.5h-.1a7.44,7.44,0,0,1-2.2-1.4,2.39,2.39,0,0,1-.5-1.4,2.34,2.34,0,0,1,.8-1.8,2.83,2.83,0,0,1,2.1-.7,6.75,6.75,0,0,1,1.4.2A4.24,4.24,0,0,1,104.1,18.4Z" />
  <path class="cls-3" d="M107.6,17.5h.1c0,.2-.1.5-.1.7v7.3h.8v.9h-3.8v-.9h.8V19.1l-.8.2v-.8Zm-2.4-1.7a1.61,1.61,0,0,1,.3-.9,1.15,1.15,0,0,1,1.7,0h0a1.27,1.27,0,0,1,.4.9,1.22,1.22,0,0,1-.4.9,1.27,1.27,0,0,1-.9.4,1.22,1.22,0,0,1-.9-.4C105.4,16.4,105.2,16.1,105.2,15.8Z" />
  <path class="cls-3" d="M117.9,14.1V15l-.8.3V25.6h.8v.9h-2.8l-.2-1a3.81,3.81,0,0,1-1.3.9,3.08,3.08,0,0,1-1.3.3,3,3,0,0,1-2.5-1.2,4.26,4.26,0,0,1-.9-3,5.5,5.5,0,0,1,1.2-3.5,3.5,3.5,0,0,1,2.8-1.4,2.15,2.15,0,0,1,1.1.2,3.13,3.13,0,0,1,1,.5V16l-.8.3v-.9Zm-3,6.4a1.87,1.87,0,0,0-.5-1.4,1.54,1.54,0,0,0-1.3-.5,1.65,1.65,0,0,0-1.5.9,4.58,4.58,0,0,0,.1,4.7,1.94,1.94,0,0,0,1.7,1,1.88,1.88,0,0,0,.8-.2,1.34,1.34,0,0,0,.7-.6V20.5Z" />
  <path class="cls-3" d="M120.2,17.4l.8.2-.2.6a5.36,5.36,0,0,1,1.1-.5,4.1,4.1,0,0,1,1.1-.1,2.93,2.93,0,0,1,2.2.7,2.93,2.93,0,0,1,.7,2.2v5h.8v.9h-2.8l-.2-1a3.45,3.45,0,0,1-1.2.9,3.19,3.19,0,0,1-1.4.3,2.78,2.78,0,0,1-2.8-2.7v-.1a2.59,2.59,0,0,1,1.1-2.3,5.29,5.29,0,0,1,3.2-.8h1v-.6a1.28,1.28,0,0,0-.4-1,1.78,1.78,0,0,0-1-.4,1.75,1.75,0,0,0-1.2.4,2.44,2.44,0,0,0-.9,1.1l-.8-.3Zm3.5,4.2h-.8a3,3,0,0,0-1.8.6,1.79,1.79,0,0,0-.2,2.6h0a1.69,1.69,0,0,0,2.4,0,1.79,1.79,0,0,0,.4-1.4Z" />
  <path class="cls-3" d="M136.1,14.1V15l-.8.3V25.6h.8v.9h-2.8l-.2-1a3.81,3.81,0,0,1-1.3.9,3.19,3.19,0,0,1-1.4.3,3,3,0,0,1-2.5-1.2,4.26,4.26,0,0,1-.9-3,5.5,5.5,0,0,1,1.2-3.5,3.56,3.56,0,0,1,2.9-1.4,2.15,2.15,0,0,1,1.1.2,3.13,3.13,0,0,1,1,.5V16l-.8.3v-.9Zm-3,6.4a1.87,1.87,0,0,0-.5-1.4,1.54,1.54,0,0,0-1.3-.5,1.65,1.65,0,0,0-1.5.9,4.58,4.58,0,0,0,.1,4.7,1.76,1.76,0,0,0,2.4.8,1.34,1.34,0,0,0,.7-.6l.1-3.9Z" />
  <path class="cls-3" d="M61,28.1h4.5a5.91,5.91,0,0,1,4,1.2,3.77,3.77,0,0,1,1.4,3.3,4.22,4.22,0,0,1-1.3,3.2A4.28,4.28,0,0,1,66.4,37a3.4,3.4,0,0,1-1-.1,1.61,1.61,0,0,1-.9-.3v2.6h1.2v1H61v-1h1V29.1H61v-1Zm3.5,1.1v5a2.77,2.77,0,0,0,.3,1.3,1.5,1.5,0,0,0,1.1.4,2,2,0,0,0,1.7-.9,3.89,3.89,0,0,0,.7-2.3,3.53,3.53,0,0,0-.8-2.6,3.1,3.1,0,0,0-2.4-1h-.6Z" />
  <path class="cls-3" d="M75.4,40.5A4.67,4.67,0,0,1,72,39.2a4.59,4.59,0,0,1,0-6.5,5,5,0,0,1,6.7,0,4.59,4.59,0,0,1,0,6.5A5.07,5.07,0,0,1,75.4,40.5ZM73,35.3a6.11,6.11,0,0,0,.8,3,2.24,2.24,0,0,0,1.9,1.2,1.76,1.76,0,0,0,1.5-.8,3.94,3.94,0,0,0,.6-2.1,6.11,6.11,0,0,0-.8-3,2.4,2.4,0,0,0-2-1.2,1.9,1.9,0,0,0-1.5.8A3.64,3.64,0,0,0,73,35.3Z" />
  <path class="cls-3" d="M81.4,39.4V33l-.8.2v-.8l2.9-.9h.1V33a9.91,9.91,0,0,1,1.7-1.1,3.26,3.26,0,0,1,1.4-.4,2.41,2.41,0,0,1,1.8.7,2.64,2.64,0,0,1,.7,1.9v5.3H90v.9H86.2v-.9H87V34.3a1.69,1.69,0,0,0-.3-1,1.21,1.21,0,0,0-1-.3,2.28,2.28,0,0,0-1.1.3,4.13,4.13,0,0,0-1.1.7v5.4h.8v.9H80.6v-.9Z" />
  <path class="cls-3" d="M92.9,29.7l.6.1v1.9h1.7l-.1.7a.35.35,0,0,1-.4.4H93.5V38a2.39,2.39,0,0,0,.2.9.71.71,0,0,0,.6.3.6.6,0,0,0,.4-.1c.2-.1.3-.2.5-.3l.4.6a3.6,3.6,0,0,1-1.2.8,2.77,2.77,0,0,1-1.3.3,1.87,1.87,0,0,1-1.4-.5,2.4,2.4,0,0,1-.4-1.6V32.9h-.9v-.7A3.89,3.89,0,0,0,92.9,29.7Z" />
  <path class="cls-3" d="M98.6,31.4h0a1.7,1.7,0,0,1,.1.7v7.3h.8v.9H95.6v-.9h.8V33l-.8.2v-.8Zm-2.3-1.8a1.61,1.61,0,0,1,.3-.9,1.27,1.27,0,0,1,.9-.4,1.22,1.22,0,0,1,.9.4,1.27,1.27,0,0,1,.4.9,1.22,1.22,0,0,1-.4.9,1.27,1.27,0,0,1-.9.4,1.2,1.2,0,0,1-1.2-1.3Z" />
  <path class="cls-3" d="M100.2,40.2v-.9h.8V33H99.8l.4-1.1h.9a1.61,1.61,0,0,1-.4-.7,1.48,1.48,0,0,1-.1-.7,2.58,2.58,0,0,1,1-1.9,3.23,3.23,0,0,1,2.1-.8,3.59,3.59,0,0,1,1.1.2,4.7,4.7,0,0,1,.9.6l-1.4,1.1a2.34,2.34,0,0,0-.7-.7c-.2-.1-.3-.2-.5-.2a.91.91,0,0,0-.7.3.78.78,0,0,0-.2.8,2,2,0,0,0,.6,1.4,2,2,0,0,0,1.5.6h.8l-.4,1.1h-1.5v6.3h1.2v.9Z" />
  <path class="cls-3" d="M108,31.4h0a.85.85,0,0,1,0,.7v7.3h.8v.9H105v-.9h.8V33l-.8.2v-.8Zm-2.4-1.8a1.22,1.22,0,0,1,.4-.9,1.27,1.27,0,0,1,.9-.4,1.2,1.2,0,0,1,1.2,1.3,1.61,1.61,0,0,1-.3.9,1.27,1.27,0,0,1-.9.4,1.22,1.22,0,0,1-.9-.4,1.27,1.27,0,0,1-.4-.9Z" />
  <path class="cls-3" d="M117.1,33l-1.6,1.4a4,4,0,0,0-1-1.5,1.85,1.85,0,0,0-1.2-.5,2.13,2.13,0,0,0-1.5.7,3.29,3.29,0,0,0-.6,1.9,4.39,4.39,0,0,0,.9,2.7,2.48,2.48,0,0,0,2.1,1.1,2.66,2.66,0,0,0,1.2-.3,3.13,3.13,0,0,0,1.1-.9l.5.4a4.36,4.36,0,0,1-1.6,1.7,3.94,3.94,0,0,1-2.1.6,4,4,0,0,1-2.9-1.2,4.62,4.62,0,0,1-1.1-3,4.67,4.67,0,0,1,1.3-3.4,4.31,4.31,0,0,1,3.2-1.4,3.92,3.92,0,0,1,1.8.4A9.34,9.34,0,0,1,117.1,33Z" />
  <path class="cls-3" d="M120.4,31.4h.1c0,.2-.1.5-.1.7v7.3h.8v.9h-3.8v-.9h.8V33l-.8.2v-.8ZM118,29.6a1.61,1.61,0,0,1,.3-.9,1.27,1.27,0,0,1,.9-.4,1.22,1.22,0,0,1,.9.4,1.27,1.27,0,0,1,.4.9,1.22,1.22,0,0,1-.4.9,1.27,1.27,0,0,1-.9.4,1.2,1.2,0,0,1-1.2-1.3Z" />
  <path class="cls-3" d="M123.5,31.2l.8.2-.2.6a3.7,3.7,0,0,1,1.1-.5,4.25,4.25,0,0,1,1.1-.2,2.59,2.59,0,0,1,2.9,2.3v5.7h.8v.9h-2.8l-.2-1a3.45,3.45,0,0,1-1.2.9,3.19,3.19,0,0,1-1.4.3,2.84,2.84,0,0,1-2.8-2.7v-.1a2.59,2.59,0,0,1,1.1-2.3,5.29,5.29,0,0,1,3.2-.8h1v-.6a1.28,1.28,0,0,0-.4-1,1.78,1.78,0,0,0-1-.4,1.75,1.75,0,0,0-1.2.4,2.44,2.44,0,0,0-.9,1.1l-.8-.3Zm3.5,4.3h-.8a3,3,0,0,0-1.8.6,1.91,1.91,0,0,0-.7,1.4,1.35,1.35,0,0,0,.5,1.2,1.69,1.69,0,0,0,2.4,0,1.79,1.79,0,0,0,.4-1.4Z" />
  <path class="cls-3" d="M57.1,46.7a4.71,4.71,0,0,1,2.6,1.1,3.15,3.15,0,0,1,.9,2.4A3.63,3.63,0,0,1,59.4,53a5.1,5.1,0,0,1-3.1,1.1H51v-1h1V43H51V42h4.7a4.9,4.9,0,0,1,2.7.6,1.92,1.92,0,0,1,.9,1.8,2,2,0,0,1-.6,1.4A3.19,3.19,0,0,1,57.1,46.7Zm-2.7-.5h.8a2.3,2.3,0,0,0,1.4-.4,1.29,1.29,0,0,0,.4-1.2,1.43,1.43,0,0,0-.5-1.1,2.82,2.82,0,0,0-1.5-.4h-.6Zm0,1.1V53h.9a2.93,2.93,0,0,0,2.2-.7,2.7,2.7,0,0,0,.7-2.1,3.14,3.14,0,0,0-.7-2.1,2.7,2.7,0,0,0-2.1-.7Z" />
  <path class="cls-3" d="M65.4,54.3A4.6,4.6,0,0,1,62.1,53a3.89,3.89,0,0,1-1.3-3.2,4.6,4.6,0,0,1,1.3-3.3,5,5,0,0,1,6.7,0,4.59,4.59,0,0,1,0,6.5A4.3,4.3,0,0,1,65.4,54.3ZM63,49.2a5.21,5.21,0,0,0,.8,3,2.24,2.24,0,0,0,1.9,1.2,1.76,1.76,0,0,0,1.5-.8,3.94,3.94,0,0,0,.6-2.1,6.11,6.11,0,0,0-.8-3,2.4,2.4,0,0,0-2-1.2,1.76,1.76,0,0,0-1.5.8A3.64,3.64,0,0,0,63,49.2Z" />
  <path class="cls-3" d="M74.3,41.8v.9l-.8.3V53.3h.8v.9H70.5v-.9h.8V43.7l-.8.3v-.9Z" />
  <path class="cls-3" d="M78,45.3h0c.1.2,0,.5,0,.7v7.3h.8v.9H75v-.9h.8V46.9l-.8.2v-.8Zm-2.4-1.8a1.22,1.22,0,0,1,.4-.9,1.27,1.27,0,0,1,.9-.4,1.16,1.16,0,0,1,1.2,1.2h0a1.61,1.61,0,0,1-.3.9,1.27,1.27,0,0,1-.9.4,1.22,1.22,0,0,1-.9-.4,1,1,0,0,1-.4-.8Z" />
  <path class="cls-3" d="M81.2,45.3c.1.3.1.6.2.9a3.55,3.55,0,0,0,.4.9,5.35,5.35,0,0,1,1.3-1.3,2.14,2.14,0,0,1,1.2-.4,3.59,3.59,0,0,1,1.1.2c.4.1.7.1,1.1.2h.4c.2-.1.3-.1.5-.2l.4.3-.6,1.2a.35.35,0,0,1-.1.2l-2.3,5.6a1.85,1.85,0,0,0-.2.7,6.37,6.37,0,0,0-.2.7H82.6a4.87,4.87,0,0,0-.4-1.1v-.1l-2.6-5.8-.7.3-.3-.7Zm4.9,1.8c-.1.1-.2.1-.3.2s-.3.1-.4,0a2.92,2.92,0,0,1-.9-.2,3.55,3.55,0,0,0-1-.2,1.45,1.45,0,0,0-.7.2,4.35,4.35,0,0,0-.7.6L84,52.1Z" />
  <path class="cls-3" d="M89.2,45.1l.8.2-.1.7a5.36,5.36,0,0,1,1.1-.5c.4-.1.7-.1,1.1-.2A2.51,2.51,0,0,1,95,48.2v5h.8v.9H93l-.2-1a3.45,3.45,0,0,1-1.2.9,3.19,3.19,0,0,1-1.4.3,2.78,2.78,0,0,1-2.8-2.7v-.1a2.59,2.59,0,0,1,1.1-2.3,5.29,5.29,0,0,1,3.2-.8h.5a.75.75,0,0,1,.5.1v-.6a1.28,1.28,0,0,0-.4-1,1.78,1.78,0,0,0-1-.4,1.75,1.75,0,0,0-1.2.4,2.66,2.66,0,0,0-1,1.1l-.8-.3Zm3.6,4.3H92a3,3,0,0,0-1.8.6,1.91,1.91,0,0,0-.7,1.4,1.5,1.5,0,0,0,.4,1.1,1.69,1.69,0,0,0,2.4,0,2.46,2.46,0,0,0,.5-1.5Z" />
  <path class="cls-3" d="M102.3,45.2l.7.3-1,2.3a2,2,0,0,0-.8-.4,1.27,1.27,0,0,0-.6-.1.91.91,0,0,0-.8.4,2,2,0,0,0-.3,1.1v4.5h1v.9h-4v-.9h.8V48.2a.9.9,0,0,0-.1-.5c-.1-.1-.2-.2-.3-.2l-.4.4-.5-.7,1.5-1.9a4.13,4.13,0,0,1,1.1.7,3.49,3.49,0,0,1,.6.9,3.6,3.6,0,0,1,.8-1.2,2,2,0,0,1,.8-.4,1.27,1.27,0,0,1,.6.1,4.88,4.88,0,0,0,.7.3Z" />
  <path class="cls-3" d="M105.8,45.3h0c.1.2,0,.5,0,.7v7.3h.8v.9h-3.8v-.9h.8V46.9l-.8.2v-.8Zm-2.3-1.8a1.22,1.22,0,0,1,.4-.9,1.27,1.27,0,0,1,.9-.4,1.16,1.16,0,0,1,1.2,1.2,1.22,1.22,0,0,1-.4.9,1.27,1.27,0,0,1-.9.4A1.16,1.16,0,0,1,103.5,43.5Z" />
  <path class="cls-3" d="M108.9,45.1l.8.2-.2.6a5.36,5.36,0,0,1,1.1-.5c.4-.1.7-.1,1.1-.2a2.51,2.51,0,0,1,2.9,2.9v5h.8V54h-2.8l-.2-1a3.45,3.45,0,0,1-1.2.9,3.19,3.19,0,0,1-1.4.3,2.73,2.73,0,0,1-2.8-2.8,2.59,2.59,0,0,1,1.1-2.3,5.29,5.29,0,0,1,3.2-.8h.5a.75.75,0,0,1,.5.1v-.6a1.28,1.28,0,0,0-.4-1,1.78,1.78,0,0,0-1-.4,1.75,1.75,0,0,0-1.2.4,2.44,2.44,0,0,0-.9,1.1l-.8-.3Zm3.6,4.3h-.8a3,3,0,0,0-1.8.6,1.91,1.91,0,0,0-.7,1.4,1.59,1.59,0,0,0,.4,1.2,1.69,1.69,0,0,0,2.4,0,1.79,1.79,0,0,0,.4-1.4Z" />
  <path class="cls-3" d="M116.9,53.3V46.9l-.8.2v-.8l2.9-.9h.1v1.5a9.91,9.91,0,0,1,1.7-1.1,3.19,3.19,0,0,1,1.4-.3,2.19,2.19,0,0,1,1.7.7,2.64,2.64,0,0,1,.7,1.9v5.3h.8v.9h-3.8v-.9h.8v-5a1.69,1.69,0,0,0-.3-1c-.3-.2-.6-.4-.9-.3a4.25,4.25,0,0,0-1.1.2,4.13,4.13,0,0,0-1.1.7v5.4h.8v.9H116v-.9l.9-.1Z" />
  <path class="cls-3" d="M127.8,45.1l.8.2-.1.6a5.36,5.36,0,0,1,1.1-.5,4.25,4.25,0,0,1,1.1-.2,2.58,2.58,0,0,1,2.9,2.2v5.8h.8v.9h-2.8l-.2-1a3.45,3.45,0,0,1-1.2.9,3.19,3.19,0,0,1-1.4.3,2.84,2.84,0,0,1-2.8-2.7v-.1a2.84,2.84,0,0,1,1.1-2.3,5.29,5.29,0,0,1,3.2-.8h.5a.75.75,0,0,1,.5.1V48a1.28,1.28,0,0,0-.4-1,2.1,2.1,0,0,0-1.1-.4,1.75,1.75,0,0,0-1.2.4,2.44,2.44,0,0,0-.9,1.1l-.8-.3Zm3.5,4.3h-.8a3,3,0,0,0-1.8.6,1.91,1.91,0,0,0-.7,1.4,1.35,1.35,0,0,0,.5,1.2,1.69,1.69,0,0,0,2.4,0,1.79,1.79,0,0,0,.4-1.4Z" />
  <path class="cls-1" d="M17.8,23.3H15.9l-.3.7a.6.6,0,0,0-.1.4c0,.1,0,.1.1.2a.6.6,0,0,0,.4.1v.1H14.5v-.1c.1,0,.3-.1.4-.1a2.51,2.51,0,0,0,.4-.7l1.7-4h.1l1.7,4c.1.2.2.5.4.6a.76.76,0,0,0,.5.2v.1H17.8v-.1a.6.6,0,0,0,.4-.1c.1,0,.1-.1.1-.2a4.33,4.33,0,0,0-.1-.5Zm-.1-.3-.8-2L16,23Z" />
  <path class="cls-1" d="M17.3,34.5v-.1H19v.1h-.2a.76.76,0,0,0-.5.2.9.9,0,0,0-.1.5v1.9a3.75,3.75,0,0,1-.1,1.1,1.34,1.34,0,0,1-.6.7,2.55,2.55,0,0,1-2.4,0,1.34,1.34,0,0,1-.6-.7,2.46,2.46,0,0,1-.1-1.2V35.2a1.27,1.27,0,0,0-.1-.6.6.6,0,0,0-.4-.1h-.2v-.1h2.1v.1h-.2c-.2,0-.3,0-.4.2a.9.9,0,0,0-.1.5v2.1a1.27,1.27,0,0,0,.1.6,1.15,1.15,0,0,0,.6.9,1.27,1.27,0,0,0,.6.1,2.92,2.92,0,0,0,.9-.2,1.21,1.21,0,0,0,.5-.5,2.08,2.08,0,0,0,.1-1.1V35.2a1.27,1.27,0,0,0-.1-.6.76.76,0,0,0-.4-.2l-.1.1Z" />
  <path class="cls-1" d="M22.5,36.9v1.4c0,.3,0,.5.1.6a.76.76,0,0,0,.4.2h.2v.1H21V39h.2c.2,0,.3-.1.5-.2a.9.9,0,0,0,.1-.5V35.2a1.27,1.27,0,0,0-.1-.6.76.76,0,0,0-.4-.2h-.2v-.1H23a4.1,4.1,0,0,1,1.1.1,1.16,1.16,0,0,1,.7.5,1.08,1.08,0,0,1,.3.7,1.28,1.28,0,0,1-.4,1,1.5,1.5,0,0,1-1.1.4h-.5Zm0-.2h.7a1,1,0,0,0,1-1,1.27,1.27,0,0,0-.1-.6.78.78,0,0,0-.4-.4,1.27,1.27,0,0,0-.6-.1.9.9,0,0,0-.5.1Z" />
  <path class="cls-1" d="M30,36.7a1.49,1.49,0,0,1,.7.3,1.14,1.14,0,0,1,.3.8,1.85,1.85,0,0,1-.2.7,1,1,0,0,1-.6.5,5.16,5.16,0,0,1-1.1.2H27V39h.2a.52.52,0,0,0,.4-.2.9.9,0,0,0,.1-.5V35.2c0-.3,0-.5-.1-.5a.52.52,0,0,0-.4-.2H27v-.1h2a2.77,2.77,0,0,1,.9.1,1.37,1.37,0,0,1,.8.5,1.08,1.08,0,0,1,.3.7,1.42,1.42,0,0,1-.2.6C30.5,36.4,30.3,36.6,30,36.7Zm-1.8-.2h.7a1.7,1.7,0,0,0,.7-.1,1.38,1.38,0,0,0,.4-.3,1.07,1.07,0,0,0-.2-1.2,1.69,1.69,0,0,0-1-.3,1.27,1.27,0,0,0-.6.1v1.8Zm0,2.3a2.2,2.2,0,0,0,.8.1,1.4,1.4,0,0,0,.9-.3.91.91,0,0,0,.3-.7,4.33,4.33,0,0,0-.1-.5.66.66,0,0,0-.5-.4,2.35,2.35,0,0,0-.8-.2h-.5l-.1,2Z" />
  <rect class="cls-4" x="151.6" width="1" height="59.7" />
  <path class="cls-5" d="M172.55,32.61c1.95,1.58,4.63,2.31,8.41,2.31H169.75v-9A8.2,8.2,0,0,0,172.55,32.61Zm6.7-2.56a7.1,7.1,0,0,0,4.88,1.46,8.3,8.3,0,0,0,5.36-1.58,5.42,5.42,0,0,0,1.95-4.51v-20H177.67V25.66A5.56,5.56,0,0,0,179.25,30.05Zm7.31,4a16.81,16.81,0,0,1-5.6.85h10.48V31.39A17.54,17.54,0,0,1,186.56,34.07Zm18-10.48a5.55,5.55,0,0,0,3.53,1,7.81,7.81,0,0,0,5.73-2.08,7.34,7.34,0,0,0,2.19-5.6,7.78,7.78,0,0,0-2.8-6.34c-1.83-1.58-4.51-2.31-7.92-2.31H203.5V20.42A4.36,4.36,0,0,0,204.6,23.59Zm15.84.25a18.09,18.09,0,0,1-10.84,3,26.26,26.26,0,0,1-3.29-.24,25.44,25.44,0,0,1-2.93-.61V34.8h21.33V16.16C224.83,19.33,223.37,21.89,220.44,23.84ZM206.92,5.43c5.6,0,10,1,13.16,2.81s4.75,4.51,4.75,7.92V5.43Zm39.11,20a6.13,6.13,0,0,0-2.44-5.12,11.86,11.86,0,0,0-7.06-1.83h-3.42V32.24H236c3.29,0,5.85-.61,7.55-1.7A6.13,6.13,0,0,0,246,25.42ZM240.3,9.09a11.74,11.74,0,0,0-5.24-1h-2.19v7.55h2.68a10,10,0,0,0,4.75-1A3.11,3.11,0,0,0,242,11.89,2.73,2.73,0,0,0,240.3,9.09Zm-2.8-3.66c4.15,0,7.31.49,9.39,1.47a4.89,4.89,0,0,1,3.16,4.51,4.07,4.07,0,0,1-2,3.41,12.68,12.68,0,0,1-5.48,1.95,17,17,0,0,1,8.77,2.68,7.06,7.06,0,0,1,3.17,6v-20Zm12.8,26.81a19.63,19.63,0,0,1-10.73,2.68h14.75v-9.5C254.44,28.22,253,30.54,250.3,32.24Z" />
  <line class="cls-6" x1="169.75" y1="39.68" x2="254.44" y2="39.68" />
  <path class="cls-5" d="M175,52.47h0l2.56-7.07h1.34l-3.41,8.53h-1.1l-3.29-8.53h1.34Z" />
  <path class="cls-5" d="M186.69,54.06h-1.22V45.53h1.22Z" />
  <path class="cls-5" d="M195.58,54.06h-1.22V45.53h2.81a4.15,4.15,0,0,1,1.21.12,8.05,8.05,0,0,1,1,.36,3.52,3.52,0,0,1,.61.73,3,3,0,0,1,.24,1.1,2.56,2.56,0,0,1-.61,1.59,2.85,2.85,0,0,1-1.46.73l2.44,3.9h-1.46l-2.2-3.78h-1.34Zm0-4.76h1.34a1.54,1.54,0,0,0,.73-.12c.25-.12.49-.12.61-.24s.37-.25.49-.37a.92.92,0,0,0,.12-.61.94.94,0,0,0-.12-.61c-.12-.12-.24-.36-.37-.36s-.36-.12-.6-.25-.49-.12-.74-.12h-1.46Z" />
  <path class="cls-5" d="M210.33,54.06h-1.22V46.5h-2.8V45.4H213v1.1h-2.8v7.56Z" />
  <path class="cls-5" d="M223,54.3a4.56,4.56,0,0,1-1.46-.24l-1.1-.73a5.28,5.28,0,0,1-.61-1.1,4.4,4.4,0,0,1-.24-1.22V45.65h1.22V51a2.09,2.09,0,0,0,.12.85l.36.73a1.23,1.23,0,0,0,.61.49,2.35,2.35,0,0,0,1,.25,2.12,2.12,0,0,0,1.58-.74l.37-.73A2.09,2.09,0,0,0,225,51V45.65h1.22V51a3.67,3.67,0,0,1-.24,1.22,5.78,5.78,0,0,1-.61,1.1,1.85,1.85,0,0,1-1.1.73A2.29,2.29,0,0,1,223,54.3Z" />
  <path class="cls-5" d="M234.21,54.06h-1.34l3.66-8.53h1.09l3.66,8.53h-1.34L239.09,52h-4Zm1.22-3.17h3.17l-1.59-4Z" />
  <path class="cls-5" d="M249.2,53H253v1.1h-5V45.53h1.22Z" />
</svg>